# xmcd
#
# Track frame offsets:
# 150
# 11847
# 21107
# 33550
# 47102
# 65055
# 79482
# 93665
# 105627
# 124350
# 137730
# 151527
# 166050
# 179820
# 195410
# 211010
#
# Disc length: 3023 seconds
#
# Revision: 0
# Processed by: cddbd v1.4PL0 Copyright (c) Steve Scherf et al.
# Submitted via: MacMP3 Pro 5.0 (http://mp3.act2.co.jp/)
#
DISCID=dc0bcd10
DTITLE=‡...ÏÂ≈@«?«©«À - Ë?Úa…t…H≈[…e…B≈[…Y
DYEAR=1900
DGENRE=
TTITLE0=Û^«√„GÍfl
TTITLE1=‡ß«√‰‘Í'
TTITLE2=Ë‚Û^«√«-«?
TTITLE3=…u…„≈[…‚…C…g≈E…‡…R…n…}≈@
TTITLE4=Ë®Èw«√Îz«¢Ëo
TTITLE5=Ìm«À«<sum>«®«?«√«¿
TTITLE6=Íœ«’Û®«Õ«»
TTITLE7=Íl«√„C«?Ìm«¡«ª«¢«?
TTITLE8=…O…b…h…i…C…g≈E…x…C…r≈[
TTITLE9=«!=«¯«?«ÿ«(TM)Ô|«¢
TTITLE10=‚J«√Í'Á?
TTITLE11=Û<«√„GÍfl
TTITLE12=Ìm«¡«ª«©«°«?«√
TTITLE13=‡ß«√«>=«•«ª«>
TTITLE14=Û^«√«µ«?«!=
TTITLE15=«>«?«¢«Œ«√Í¢‰E
EXTD=
EXTT0=
EXTT1=
EXTT2=
EXTT3=
EXTT4=
EXTT5=
EXTT6=
EXTT7=
EXTT8=
EXTT9=
EXTT10=
EXTT11=
EXTT12=
EXTT13=
EXTT14=
EXTT15=
PLAYORDER=
